<svg id="visual" viewBox="0 0 1200 600" width="1200" height="600" xmlns="http://www.w3.org/2000/svg" xmlns:xlink="http://www.w3.org/1999/xlink" version="1.1"><rect x="0" y="0" width="1200" height="600" fill="#001220"></rect><path d="M0 186L22.2 204.7C44.3 223.3 88.7 260.7 133.2 279.8C177.7 299 222.3 300 266.8 286.8C311.3 273.7 355.7 246.3 400 244.2C444.3 242 488.7 265 533.2 278.5C577.7 292 622.3 296 666.8 306C711.3 316 755.7 332 800 329.5C844.3 327 888.7 306 933.2 276.2C977.7 246.3 1022.3 207.7 1066.8 210.8C1111.3 214 1155.7 259 1177.8 281.5L1200 304L1200 0L1177.8 0C1155.7 0 1111.3 0 1066.8 0C1022.3 0 977.7 0 933.2 0C888.7 0 844.3 0 800 0C755.7 0 711.3 0 666.8 0C622.3 0 577.7 0 533.2 0C488.7 0 444.3 0 400 0C355.7 0 311.3 0 266.8 0C222.3 0 177.7 0 133.2 0C88.7 0 44.3 0 22.2 0L0 0Z" fill="#560090"></path><path d="M0 175L22.2 185.8C44.3 196.7 88.7 218.3 133.2 210.5C177.7 202.7 222.3 165.3 266.8 156C311.3 146.7 355.7 165.3 400 174.2C444.3 183 488.7 182 533.2 177.3C577.7 172.7 622.3 164.3 666.8 166C711.3 167.7 755.7 179.3 800 196C844.3 212.7 888.7 234.3 933.2 238.2C977.7 242 1022.3 228 1066.8 219.8C1111.3 211.7 1155.7 209.3 1177.8 208.2L1200 207L1200 0L1177.8 0C1155.7 0 1111.3 0 1066.8 0C1022.3 0 977.7 0 933.2 0C888.7 0 844.3 0 800 0C755.7 0 711.3 0 666.8 0C622.3 0 577.7 0 533.2 0C488.7 0 444.3 0 400 0C355.7 0 311.3 0 266.8 0C222.3 0 177.7 0 133.2 0C88.7 0 44.3 0 22.2 0L0 0Z" fill="#7700c6"></path><path d="M0 108L22.2 105.3C44.3 102.7 88.7 97.3 133.2 106.7C177.7 116 222.3 140 266.8 132.7C311.3 125.3 355.7 86.7 400 67.3C444.3 48 488.7 48 533.2 65C577.7 82 622.3 116 666.8 117.5C711.3 119 755.7 88 800 80.8C844.3 73.7 888.7 90.3 933.2 98.2C977.7 106 1022.3 105 1066.8 97.5C1111.3 90 1155.7 76 1177.8 69L1200 62L1200 0L1177.8 0C1155.7 0 1111.3 0 1066.8 0C1022.3 0 977.7 0 933.2 0C888.7 0 844.3 0 800 0C755.7 0 711.3 0 666.8 0C622.3 0 577.7 0 533.2 0C488.7 0 444.3 0 400 0C355.7 0 311.3 0 266.8 0C222.3 0 177.7 0 133.2 0C88.7 0 44.3 0 22.2 0L0 0Z" fill="#9900ff"></path></svg>